<svg width="34" height="40" viewBox="0 0 34 40" fill="none" xmlns="http://www.w3.org/2000/svg">
<path fill-rule="evenodd" clip-rule="evenodd" d="M23.1948 0H0.165162V23.0296H4.35236V18.8424V16.6441V4.1872H21.4571L29.4756 12.2057V16.6441V18.8424V23.0296H33.6628V10.468L23.1948 0ZM0 39.7784V27.2195H2.82731V37.5627H8.22491V39.7784H0ZM15.0317 26.9979C17.0052 26.9979 18.5179 27.6242 19.5696 28.8769C20.58 30.0763 21.0852 31.6185 21.0852 33.5034C21.0852 35.5655 20.4884 37.2052 19.2949 38.4224C18.2667 39.4741 16.8457 40 15.0317 40C13.0582 40 11.5456 39.3737 10.4938 38.121C9.48346 36.9216 8.97827 35.3558 8.97827 33.4236C8.97827 31.4028 9.57505 29.7839 10.7686 28.5667C11.8026 27.5208 13.2237 26.9979 15.0317 26.9979ZM15.0229 29.2137C14.0007 29.2137 13.2118 29.6391 12.6564 30.4899C12.1542 31.2581 11.9031 32.2448 11.9031 33.4502C11.9031 34.8447 12.2015 35.9259 12.7982 36.6941C13.3596 37.4209 14.1041 37.7842 15.0317 37.7842C16.048 37.7842 16.8398 37.3559 17.407 36.4991C17.9093 35.7428 18.1604 34.7442 18.1604 33.5034C18.1604 32.1385 17.862 31.072 17.2652 30.3038C16.7039 29.5771 15.9564 29.2137 15.0229 29.2137ZM33.7505 32.75V39.158C33.0296 39.4003 32.5215 39.5598 32.226 39.6366C31.3102 39.8789 30.3264 40 29.2746 40C27.2066 40 25.6319 39.48 24.5506 38.4401C23.3512 37.2938 22.7514 35.6955 22.7514 33.6452C22.7514 31.2876 23.4959 29.5091 24.9849 28.3096C26.0662 27.4352 27.5257 26.9979 29.3633 26.9979C30.935 26.9979 32.3974 27.2845 33.7505 27.8576L32.7844 30.0645C32.1463 29.7455 31.5879 29.5224 31.1093 29.3954C30.6307 29.2683 30.1048 29.2048 29.5317 29.2048C28.1609 29.2048 27.1505 29.6509 26.5005 30.5431C25.951 31.2994 25.6762 32.2951 25.6762 33.53C25.6762 35.0131 26.0899 36.1298 26.9171 36.8802C27.5788 37.4829 28.4002 37.7842 29.381 37.7842C29.9541 37.7842 30.4977 37.6867 31.0118 37.4918V34.9658H28.8492V32.75H33.7505Z" fill="#9197B3"/>
</svg>
