<svg width="18" height="14" viewBox="0 0 18 14" fill="none" xmlns="http://www.w3.org/2000/svg">
<path d="M17.2603 5.41014L17.6302 5.76748L18 5.41014L17.6302 5.05286L17.2603 5.41014ZM0 13.4947C0 13.7737 0.234175 14 0.52304 14C0.811904 14 1.04608 13.7737 1.04608 13.4947H0ZM12.3998 10.8203L17.6302 5.76748L16.8904 5.05286L11.66 10.1057L12.3998 10.8203ZM17.6302 5.05286L12.3998 0L11.66 0.714575L16.8904 5.76748L17.6302 5.05286ZM17.2603 4.90486H6.79952V5.91543H17.2603V4.90486ZM0 11.4736V13.4947H1.04608V11.4736H0ZM6.79952 4.90486C3.04425 4.90486 0 7.84572 0 11.4736H1.04608C1.04608 8.40386 3.62198 5.91543 6.79952 5.91543V4.90486Z" fill="#9197B3"/>
</svg>
