<svg width="40" height="40" viewBox="0 0 40 40" fill="none" xmlns="http://www.w3.org/2000/svg">
<path fill-rule="evenodd" clip-rule="evenodd" d="M31.2211 0C32.1855 0 33.1104 0.383109 33.7924 1.06507L38.9349 6.20765C39.6169 6.88962 40 7.81453 40 8.77896V34.5455C40 37.558 37.558 40 34.5455 40H5.45455C2.44209 40 0 37.558 0 34.5455V5.45455C0 2.44209 2.44209 0 5.45455 0H31.2211ZM5.45455 3.63636C4.4504 3.63636 3.63636 4.4504 3.63636 5.45455V34.5455C3.63636 35.5496 4.4504 36.3636 5.45455 36.3636H7.27273V25.4545C7.27273 22.442 9.71482 20 12.7273 20H27.2727C30.2853 20 32.7273 22.442 32.7273 25.4545V36.3636H34.5455C35.5496 36.3636 36.3636 35.5496 36.3636 34.5455V10.5971C36.3636 9.63271 35.9805 8.7078 35.2985 8.02584L31.9742 4.70144C31.2922 4.01947 30.3673 3.63636 29.4029 3.63636H29.0909V7.27273C29.0909 10.2852 26.6489 12.7273 23.6364 12.7273H16.3636C13.3512 12.7273 10.9091 10.2852 10.9091 7.27273V3.63636H5.45455ZM29.0909 36.3636V25.4545C29.0909 24.4504 28.2769 23.6364 27.2727 23.6364H12.7273C11.7231 23.6364 10.9091 24.4504 10.9091 25.4545V36.3636H29.0909ZM14.5455 3.63636H25.4545V7.27273C25.4545 8.27687 24.6405 9.09091 23.6364 9.09091H16.3636C15.3595 9.09091 14.5455 8.27687 14.5455 7.27273V3.63636Z" fill="#9197B3"/>
</svg>
