<svg width="37" height="40" viewBox="0 0 37 40" fill="none" xmlns="http://www.w3.org/2000/svg">
<path fill-rule="evenodd" clip-rule="evenodd" d="M18.5 12C14.3579 12 11 15.3579 11 19.5C11 23.6422 14.3579 27 18.5 27C22.6422 27 26 23.6422 26 19.5C26 15.3579 22.6422 12 18.5 12ZM14 19.5C14 17.0148 16.0148 15 18.5 15C20.9852 15 23 17.0148 23 19.5C23 21.9852 20.9852 24 18.5 24C16.0148 24 14 21.9852 14 19.5Z" fill="#9197B3"/>
<path fill-rule="evenodd" clip-rule="evenodd" d="M18.454 7.90285e-07C17.6463 -1.78144e-05 16.9717 -1.79022e-05 16.4181 0.0386426C15.8417 0.078903 15.2974 0.165675 14.7696 0.389452C13.5448 0.908726 12.5717 1.90473 12.0644 3.15836C11.8003 3.81101 11.7288 4.49883 11.7015 5.24644C11.6795 5.84742 11.3832 6.34886 10.9459 6.60728C10.5087 6.86569 9.93625 6.87764 9.4168 6.59662C8.77061 6.24701 8.15289 5.96649 7.46864 5.87429C6.15433 5.69717 4.82509 6.06175 3.77337 6.8878C3.32014 7.24378 2.9745 7.68298 2.65227 8.17377C2.34272 8.64523 2.00553 9.24307 1.60161 9.9592L1.55571 10.0406C1.15177 10.7567 0.814567 11.3545 0.570445 11.8646C0.316325 12.3957 0.117534 12.9217 0.0429573 13.5014C-0.130079 14.8467 0.226099 16.2073 1.0331 17.2839C1.45318 17.8441 1.99928 18.2515 2.61807 18.6495C3.11569 18.9695 3.39184 19.483 3.3918 20C3.39179 20.5168 3.11564 21.0303 2.61807 21.3503C1.99921 21.7483 1.45306 22.1557 1.03293 22.7161C0.225917 23.7926 -0.130242 25.1531 0.0427755 26.4984C0.117352 27.0781 0.316143 27.6043 0.570263 28.1353C0.814385 28.6454 1.15159 29.2432 1.55551 29.9593L1.60143 30.0407C2.00535 30.7568 2.34254 31.3546 2.65209 31.826C2.97432 32.3168 3.31995 32.7561 3.77319 33.112C4.82491 33.938 6.15414 34.3027 7.46845 34.1256C8.15267 34.0333 8.77035 33.7529 9.41651 33.4034C9.93604 33.1222 10.5085 33.1341 10.9458 33.3927C11.3832 33.6512 11.6795 34.1526 11.7015 34.7537C11.7288 35.5012 11.8004 36.189 12.0644 36.8417C12.5717 38.0953 13.5448 39.0914 14.7696 39.6106C15.2974 39.8344 15.8417 39.9211 16.4181 39.9613C16.9717 40 17.6463 40 18.454 40H18.5458C19.3537 40 20.028 40 20.5819 39.9613C21.1582 39.9211 21.7026 39.8344 22.2304 39.6106C23.4551 39.0914 24.4283 38.0953 24.9356 36.8417C25.1997 36.189 25.2711 35.5012 25.2984 34.7535C25.3204 34.1526 25.6166 33.6512 26.054 33.3926C26.4913 33.1341 27.0638 33.1222 27.5833 33.4032C28.2294 33.7527 28.8471 34.0333 29.5314 34.1254C30.8457 34.3025 32.1749 33.938 33.2266 33.112C33.6799 32.7559 34.0254 32.3168 34.3477 31.826C34.6572 31.3546 34.9944 30.7568 35.3983 30.0407L35.4442 29.9593C35.8481 29.2432 36.1855 28.6452 36.4296 28.1351C36.6837 27.6041 36.8823 27.0781 36.957 26.4984C37.1301 25.1529 36.7738 23.7924 35.9668 22.7159C35.5468 22.1555 35.0006 21.7483 34.3819 21.3503C33.8842 21.0303 33.6081 20.5168 33.6081 19.9998C33.6081 19.483 33.8842 18.9697 34.3817 18.6497C35.0008 18.2517 35.5469 17.8445 35.967 17.2839C36.774 16.2074 37.1303 14.8469 36.9572 13.5015C36.8825 12.9218 36.6839 12.3958 36.4298 11.8647C36.1856 11.3547 35.8485 10.7569 35.4444 10.0408L35.3986 9.95941C34.9946 9.24326 34.6574 8.64536 34.3479 8.1739C34.0256 7.68311 33.6801 7.24391 33.2268 6.88791C32.1751 6.06188 30.8459 5.6973 29.5314 5.87442C28.8473 5.96662 28.2296 6.24711 27.5835 6.59669C27.064 6.87775 26.4915 6.86579 26.0541 6.60733C25.6168 6.34889 25.3204 5.84739 25.2984 5.24635C25.2711 4.49875 25.1997 3.81098 24.9356 3.15836C24.4283 1.90473 23.4551 0.908726 22.2304 0.389452C21.7026 0.165675 21.1582 0.078903 20.5819 0.0386426C20.028 -1.79022e-05 19.3537 -1.78144e-05 18.5458 7.90285e-07H18.454ZM15.8128 2.96772C15.9532 2.90826 16.1662 2.85343 16.6037 2.82287C17.0535 2.79146 17.6344 2.7907 18.5 2.7907C19.3655 2.7907 19.9464 2.79146 20.3961 2.82287C20.8338 2.85343 21.0468 2.90826 21.187 2.96772C21.7437 3.20376 22.1861 3.65648 22.4166 4.22633C22.4895 4.40607 22.5496 4.68627 22.574 5.35064C22.6278 6.82484 23.3712 8.24426 24.6909 9.02415C26.0105 9.80406 27.5833 9.7533 28.8574 9.06396C29.4316 8.7533 29.699 8.66664 29.8873 8.64125C30.4847 8.56075 31.0889 8.72646 31.5669 9.10192C31.6874 9.1965 31.8403 9.35794 32.085 9.73053C32.3365 10.1135 32.6275 10.6281 33.0603 11.3954C33.493 12.1626 33.783 12.6779 33.9813 13.0923C34.1741 13.4955 34.2343 13.7118 34.2541 13.8658C34.3328 14.4773 34.1708 15.0958 33.804 15.5851C33.6883 15.7394 33.4814 15.933 32.9312 16.2867C31.7111 17.0716 30.8819 18.4402 30.8817 19.9998C30.8817 21.5596 31.7109 22.9284 32.9312 23.7133C33.4812 24.067 33.6881 24.2605 33.8039 24.4149C34.1707 24.9042 34.3326 25.5226 34.2539 26.1341C34.2341 26.2882 34.1739 26.5044 33.9811 26.9075C33.7828 27.3219 33.4929 27.8372 33.0601 28.6045C32.6273 29.3717 32.3363 29.8863 32.0848 30.2694C31.8401 30.6419 31.6873 30.8033 31.5668 30.8979C31.0887 31.2735 30.4846 31.4391 29.8871 31.3587C29.6988 31.3332 29.4314 31.2465 28.8572 30.936C27.5831 30.2465 26.0103 30.1959 24.6906 30.9758C23.3712 31.7557 22.6278 33.1751 22.574 34.6493C22.5496 35.3137 22.4895 35.5939 22.4166 35.7738C22.1861 36.3434 21.7437 36.7963 21.187 37.0324C21.0468 37.0917 20.8338 37.1466 20.3961 37.1771C19.9464 37.2086 19.3655 37.2093 18.5 37.2093C17.6344 37.2093 17.0535 37.2086 16.6037 37.1771C16.1662 37.1466 15.9532 37.0917 15.8128 37.0324C15.2563 36.7963 14.8139 36.3434 14.5833 35.7738C14.5106 35.5939 14.4503 35.3137 14.426 34.6493C14.3721 33.1753 13.6288 31.7557 12.309 30.9758C10.9894 30.1959 9.41673 30.2467 8.14251 30.936C7.56828 31.2467 7.30105 31.3334 7.1126 31.3587C6.51518 31.4393 5.91099 31.2735 5.43294 30.898C5.3125 30.8035 5.15959 30.642 4.91496 30.2694C4.66349 29.8865 4.3724 29.3719 3.93963 28.6047C3.50684 27.8374 3.21704 27.322 3.01872 26.9077C2.8258 26.5046 2.76567 26.2882 2.74586 26.1341C2.66722 25.5226 2.82911 24.9042 3.19594 24.4149C3.31165 24.2607 3.51858 24.067 4.06857 23.7133C5.28887 22.9286 6.11814 21.5598 6.11821 20.0002C6.1183 18.4402 5.289 17.0714 4.06859 16.2865C3.51873 15.9328 3.31181 15.7393 3.1961 15.5849C2.82929 15.0956 2.6674 14.4772 2.74604 13.8657C2.76586 13.7116 2.82598 13.4954 3.0189 13.0922C3.21722 12.6778 3.50702 12.1625 3.93979 11.3952C4.37258 10.628 4.66365 10.1134 4.91514 9.7304C5.15977 9.35782 5.31268 9.19637 5.4331 9.10181C5.91117 8.72633 6.51536 8.56061 7.11277 8.64112C7.30124 8.66651 7.56848 8.75317 8.14279 9.06389C9.41693 9.75321 10.9895 9.80395 12.3091 9.02409C13.6288 8.24424 14.3721 6.82488 14.426 5.35074C14.4503 4.68631 14.5106 4.40609 14.5833 4.22633C14.8139 3.65648 15.2563 3.20376 15.8128 2.96772Z" fill="#9197B3"/>
</svg>
