<svg width="18" height="14" viewBox="0 0 18 14" fill="none" xmlns="http://www.w3.org/2000/svg">
<path d="M0.739681 5.41014L0.369789 5.76748L0 5.41014L0.369789 5.05286L0.739681 5.41014ZM18 13.4947C18 13.7737 17.7658 14 17.477 14C17.1881 14 16.9539 13.7737 16.9539 13.4947H18ZM5.60019 10.8203L0.369789 5.76748L1.10958 5.05286L6.33997 10.1057L5.60019 10.8203ZM0.369789 5.05286L5.60019 0L6.33997 0.714575L1.10958 5.76748L0.369789 5.05286ZM0.739681 4.90486H11.2005V5.91543H0.739681V4.90486ZM18 11.4736V13.4947H16.9539V11.4736H18ZM11.2005 4.90486C14.9558 4.90486 18 7.84572 18 11.4736H16.9539C16.9539 8.40386 14.378 5.91543 11.2005 5.91543V4.90486Z" fill="#9197B3"/>
</svg>
